<?xml version="1.0" encoding="UTF-8"?>
<svg data-bbox="32.83 373.39 528.89 95.64" viewBox="0 0 595.28 841.89" xmlns="http://www.w3.org/2000/svg" data-type="color">
    <g>
        <path d="m146.48 424.88-.08.07-.2.19-23.41 21.58c-4.01 3.53-6.52 4.78-11.88 4.78H83.5c-5.37 0-7.88-1.25-11.88-4.78L48.2 425.14l-.28-.26 1.65 5.65c.52 1.78 1.33 3.46 2.35 5 .47.76.98 1.48 1.57 2.07l22.01 24.71c3.81 4.28 5.09 6.72 10.81 6.72h21.04c5.73 0 7.73-2.45 11.54-6.72l22.01-24.72c.59-.59 1.1-1.31 1.57-2.08 1.02-1.54 1.83-3.21 2.35-5l1.66-5.63z" fill="#a7a9ac" data-color="1"/>
        <path d="M151.03 407.78c.56-.89 1-1.86 1.3-2.89l.24-.82c.28-.87.53-1.73.74-2.53l.92-3.14-31.45 22.57c-4.36 3.13-9.5 4.78-14.86 4.78H86.48c-5.37 0-10.51-1.65-14.87-4.78L40.15 398.4l.93 3.18c.21.77.45 1.6.71 2.44l.25.87c.3 1.02.74 2 1.31 2.89.23.4.49.74.75 1.05.05.06.1.13.15.2.02.02.03.04.05.06l.04.03c.3.35.61.69.95 1l30.29 29.4c2.09 1.88 5.99 2.93 9.36 2.93h24.52c3.37 0 7.27-1.04 9.36-2.93l30.28-29.4c.34-.31.65-.65.95-1l.04-.03c.02-.02.03-.05.05-.06.05-.05.09-.11.13-.17.26-.32.52-.67.76-1.08z" fill="#a7a9ac" data-color="1"/>
        <path d="m161.37 373.51-37.5 22.31a29.83 29.83 0 0 1-15.29 4.19l-11.36-.02h-.03l-11.36.01c-5.38.01-10.67-1.43-15.3-4.19l-37.7-22.42c1.17 3.99 1.67 6.15 2.56 8.01.05.12.12.22.18.34.2.39.43.78.69 1.16a15.54 15.54 0 0 0 3.02 3.55c.13.13.22.24.36.37l.23.13c.19.15.35.32.54.46l33.71 25.95c2.81 2.02 6.85 3.32 10.31 3.32h25.55c3.46 0 7.5-1.3 10.31-3.32l33.7-25.95c.16-.12.3-.26.45-.39l.21-.11c.1-.09.16-.18.25-.28 2.36-1.98 4.12-4.58 4.99-7.55l1.67-5.69-.19.12z" fill="#a7a9ac" data-color="1"/>
        <path d="M260.64 401.81c4.73 0 9.73 6.56 11.24 10.71 1.61 4.42-.18 9.46-4.35 11.65l-.11.06c4.65 2.03 6.51 7.66 4.25 12.18-2.25 4.51-6.47 11.55-10.87 11.55h-53.77c-1.72 0-2.58-.66-2.58-1.98v-42.19c0-1.32.86-1.98 2.58-1.98h53.61zm-43.03 19.18h39.44c1.06 0 1.91-.48 2.52-1.13 1.05-1.11 1.3-2.74.85-4.19-.57-1.83-1.79-4.76-3.8-4.76h-37.89c-.75 0-1.12.29-1.12.86v9.22zm0 7.19V438c0 .57.37.86 1.12.86h36.61c1.39 0 2.95-2.41 3.95-4.3 1.16-2.17.39-4.99-1.83-6.04a3.32 3.32 0 0 0-1.45-.34h-38.4z" fill="#a7a9ac" data-color="1"/>
        <path d="M367.73 401.81c1.26 0 1.89.48 1.89 1.45v26.31c0 6.19 4.43 8.32 5.89 8.6 1.46.29 3.32.43 5.55.43h34.84c1.26 0 1.89.49 1.89 1.45 0 0-.63 7.91-1.89 7.91h-35.36c-4.35 0-8.06-.31-11.1-.92-3.04-.61-12.99-3.79-12.99-16.48v-27.3c0-.97.66-1.45 1.98-1.45h9.3z" fill="#a7a9ac" data-color="1"/>
        <path d="M486.79 401.81c1.32 0 1.98 7.71 1.98 7.71 0 .97-.66 1.45-1.98 1.45H449.2c-2.23 0-4.08.14-5.54.43-1.46.28-2.64.77-3.53 1.45-.89.68-1.5 1.61-1.85 2.77-.34 1.17-.52 2.61-.52 4.32v.66h38.49c1.26 0 1.89.48 1.89 1.45 0 0-3.9 6.66-5.16 6.66h-35.22v1.12c0 1.71.18 3.15.52 4.32.34 1.17.96 2.09 1.85 2.77.89.68 2.07 1.16 3.53 1.45 1.46.29 3.31.43 5.54.43h37.59c1.32 0 1.98.48 1.98 1.45 0 0-.66 7.71-1.98 7.71h-37.85c-13.51 0-16.87-2.25-18.54-3.92-6.58-6.58-7.22-31.02 0-38.24 1.67-1.67 5.23-3.99 18.54-3.99h37.85z" fill="#a7a9ac" data-color="1"/>
        <path d="M344.65 401.81c1.32 0 1.98 7.71 1.98 7.71 0 .97-.66 1.45-1.98 1.45h-37.59c-2.23 0-4.08.14-5.54.43-1.46.28-2.64.77-3.53 1.45-.89.68-1.5 1.61-1.85 2.77-.34 1.17-.52 2.61-.52 4.32v.66h38.49c1.26 0 1.89.48 1.89 1.45 0 0-3.9 6.66-5.16 6.66h-35.22v1.12c0 1.71.17 3.15.52 4.32.34 1.17.96 2.09 1.85 2.77.89.68 2.07 1.16 3.53 1.45 1.46.29 3.31.43 5.54.43h37.59c1.32 0 1.98.48 1.98 1.45 0 0-.66 7.71-1.98 7.71H306.8c-13.51 0-16.87-2.25-18.54-3.92-6.58-6.58-7.22-31.02 0-38.24 1.67-1.67 5.23-3.99 18.54-3.99h37.85z" fill="#a7a9ac" data-color="1"/>
        <path d="M511.64 410.82h48.11c1.32 0 1.97-7.58 1.97-7.58 0-.95-.66-1.43-1.97-1.43h-47.66c-5.22 0-9.29.72-11.52 2.92-3.77 3.7-3.84 17.24.08 21.1 2.26 2.22 6.28 2.89 11.27 2.89h35.97c3.05 0 2.89 10.09-.09 10.09h-48.11c-1.32 0-1.97.48-1.97 1.45 0 0 .66 7.71 1.97 7.71h47.66c5.22 0 9.29-.73 11.52-2.97 3.77-3.77 3.84-17.53-.08-21.46-2.26-2.26-6.28-2.93-11.27-2.93h-35.97c-3.05-.01-2.89-9.79.09-9.79" fill="#a7a9ac" data-color="1"/>
    </g>
</svg>
